# xmcd
#
# Track frame offsets: 
#        150
#        12344
#        23535
#        38104
#        54272
#        66752
#        83495
#        98104
#        116291
#        137550
#        155249
#        174906
#        186804
#
# Disc length: 2726 seconds
#
# Revision: 2
# Processed by: cddbd v1.5.2PL0 Copyright (c) Steve Scherf et al.
# Submitted via: ExactAudioCopyFreeDBPlugin 1.0
#
DISCID=950aa40d
DTITLE=Bob Wayne - Outlaw Carnie
DYEAR=2010
DGENRE=Country
TTITLE0=Road Bound
TTITLE1=Est Acata
TTITLE2=Mack
TTITLE3=Ghost Town
TTITLE4=Reptile
TTITLE5=Love Songs Suck
TTITLE6=Everything's Legal in Alabama
TTITLE7=Gold
TTITLE8=Blood to Dust
TTITLE9=Driven by Demons
TTITLE10=Work of the Devil
TTITLE11=Chatterbox
TTITLE12=2012
EXTD=
EXTT0=
EXTT1=
EXTT2=
EXTT3=
EXTT4=
EXTT5=
EXTT6=
EXTT7=
EXTT8=
EXTT9=
EXTT10=
EXTT11=
EXTT12=
PLAYORDER=
